<?xml version="1.0" encoding="UTF-8"?>
<svg version="1.1" xmlns="http://www.w3.org/2000/svg" width="183" height="214">
<path d="M0 0 C3 1 3 1 4 3 C4.09576495 4.87066865 4.12630636 6.74480176 4.12698364 8.61791992 C4.12980347 9.81258881 4.13262329 11.00725769 4.13552856 12.23812866 C4.13350433 13.55560089 4.1314801 14.87307312 4.12939453 16.23046875 C4.13074897 17.62651617 4.13252915 19.02256324 4.13470459 20.41860962 C4.13927379 24.2160339 4.13749146 28.01343109 4.1343255 31.81085587 C4.13179927 35.77909673 4.13414018 39.74733522 4.13571167 43.71557617 C4.13753259 50.38037534 4.13512908 57.04516345 4.13037109 63.70996094 C4.12492862 71.42278143 4.12669133 79.13557549 4.1321975 86.84839535 C4.13673083 93.46242722 4.1373781 100.07645112 4.13475883 106.69048405 C4.13319727 110.6442769 4.132999 114.59805731 4.13629532 118.55184937 C4.13917721 122.26836768 4.13719245 125.98485181 4.13140106 129.70136642 C4.1294411 131.72153425 4.13242468 133.74170495 4.13552856 135.76187134 C4.13270874 136.95654022 4.12988892 138.15120911 4.12698364 139.38208008 C4.12660662 140.42479568 4.12622959 141.46751129 4.12584114 142.54182434 C4 145 4 145 3 147 C22.14 147 41.28 147 61 147 C62 150 62 150 60.8125 152.41796875 C45.42722529 175.92693377 22.52433064 189.78548104 -4.75341797 195.58544922 C-31.07144578 200.95781784 -31.07144578 200.95781784 -39 199 C-42.67642445 194.32454717 -43.12403616 189.88592553 -43.14044189 184.0949707 C-43.14615204 182.88676163 -43.15186218 181.67855255 -43.15774536 180.43373108 C-43.15899066 179.09774791 -43.16011577 177.76176462 -43.16113281 176.42578125 C-43.16576328 175.01610688 -43.17078825 173.60643376 -43.17617798 172.19676208 C-43.18928756 168.36780341 -43.19574488 164.53886226 -43.20018864 160.70988464 C-43.20312352 158.31370815 -43.20722926 155.9175364 -43.21169281 153.5213623 C-43.22536798 146.01314377 -43.23503283 138.50493613 -43.2388947 130.99670601 C-43.24336655 122.35135965 -43.26087362 113.70617209 -43.2898953 105.06087399 C-43.31158295 98.36596579 -43.32160285 91.67110202 -43.32293582 84.9761591 C-43.32397939 80.98401338 -43.32979026 76.99201693 -43.34775543 72.99990845 C-43.36435762 69.23730306 -43.36633345 65.47495715 -43.35761642 61.71232796 C-43.35649116 59.69169842 -43.37011692 57.67107703 -43.3843689 55.65049744 C-43.32170355 41.80162599 -41.00945418 32.24772169 -31.29296875 22.2421875 C-25.97414748 17.25941376 -19.79889256 13.41112427 -13.7109375 9.44921875 C-9.67594086 6.81603738 -5.80102684 3.98104573 -1.953125 1.08203125 C-1.30859375 0.72496094 -0.6640625 0.36789062 0 0 Z " fill="#348687" transform="translate(57,14)"/>
<path d="M0 0 C10.21409744 7.08397081 16.97741225 17.15426467 19.4375 29.4375 C20.11184801 34.24739039 20.42696513 38.90427038 20.0625 43.75 C19.97742188 44.95849609 19.97742188 44.95849609 19.890625 46.19140625 C17.27737171 67.06632238 -0.05393129 86.27902021 -12.22119141 102.46386719 C-13.34304359 103.95818068 -14.46012161 105.45609349 -15.57177734 106.95800781 C-17.05588115 108.96120065 -18.55607475 110.95106479 -20.0625 112.9375 C-20.49941162 113.53183838 -20.93632324 114.12617676 -21.38647461 114.73852539 C-22.6328125 116.35546875 -22.6328125 116.35546875 -24.9375 118.75 C-28.9375 118.75 -28.9375 118.75 -30.58496094 117.12939453 C-31.10864258 116.38802246 -31.63232422 115.64665039 -32.171875 114.8828125 C-32.74550781 114.07972656 -33.31914063 113.27664062 -33.91015625 112.44921875 C-34.49667969 111.59972656 -35.08320312 110.75023438 -35.6875 109.875 C-36.28949219 109.03324219 -36.89148438 108.19148438 -37.51171875 107.32421875 C-41.9375 101.05185303 -41.9375 101.05185303 -41.9375 98.75 C-42.5975 98.75 -43.2575 98.75 -43.9375 98.75 C-45.41796875 96.6953125 -45.41796875 96.6953125 -47.125 93.875 C-49.49529459 90.03127904 -51.92741302 86.29221076 -54.5625 82.625 C-57.2600746 78.81701439 -59.61699803 74.94344486 -61.8203125 70.83203125 C-62.8354547 68.94017533 -63.9049727 67.09626696 -65 65.25 C-68.74875775 58.65157681 -71.6353545 52.44814189 -71.9375 44.75 C-71.99744141 43.24566406 -71.99744141 43.24566406 -72.05859375 41.7109375 C-72.36379503 26.37906164 -68.90749752 16.2684087 -58.30859375 5.04296875 C-42.43376822 -10.30879828 -18.56722077 -11.09969285 0 0 Z M-42.4375 27.8125 C-45.12373261 33.29289422 -45.04439608 40.1411258 -43.27734375 45.90234375 C-41.01590617 50.37627004 -37.60791132 53.94625494 -32.9375 55.75 C-27.05093707 56.43915859 -21.15642769 56.9118321 -15.9375 53.75 C-15.9375 53.09 -15.9375 52.43 -15.9375 51.75 C-15.36 51.564375 -14.7825 51.37875 -14.1875 51.1875 C-10.85980886 49.06147511 -9.26212523 46.37599432 -7.9375 42.75 C-6.83369381 37.0813004 -7.4729938 32.80910126 -10.5 27.875 C-14.20098569 23.01207694 -17.44031702 20.2944716 -23.546875 19.34375 C-32.01805632 18.87572893 -37.11912342 21.29748869 -42.4375 27.8125 Z " fill="#377380" transform="translate(141.9375,13.25)"/>
<path d="M0 0 C5.55007795 -0.09938156 11.09963018 -0.1717096 16.65039062 -0.21972656 C18.53589916 -0.23975767 20.42134623 -0.26699073 22.30664062 -0.30175781 C25.02749862 -0.35065272 27.74753056 -0.37305382 30.46875 -0.390625 C31.30241089 -0.41127014 32.13607178 -0.43191528 32.99499512 -0.45318604 C39.73356141 -0.45573017 44.96424313 1.321391 50.05859375 5.81640625 C50.51363281 6.39261719 50.96867187 6.96882812 51.4375 7.5625 C51.91058594 8.14128906 52.38367188 8.72007812 52.87109375 9.31640625 C55.96901735 13.936493 55.26076668 19.47707008 55.3125 24.8125 C55.35600586 26.29073242 55.35600586 26.29073242 55.40039062 27.79882812 C55.46223825 34.88275937 54.18401419 38.44413014 49.39453125 43.79296875 C42.34478879 50.00718618 34.82147176 51.46175755 25.62475586 51.34057617 C24.29142212 51.34123329 24.29142212 51.34123329 22.93115234 51.34190369 C20.02548396 51.33983217 17.12040994 51.31657918 14.21484375 51.29296875 C12.1874676 51.28736696 10.16008737 51.28309962 8.13270569 51.28010559 C2.82097985 51.26870271 -2.49049622 51.23927503 -7.80212402 51.20599365 C-13.23198062 51.17519417 -18.66187793 51.16157921 -24.09179688 51.14648438 C-34.72797375 51.11440074 -45.36396603 51.06325992 -56 51 C-55.62524414 49.0703125 -55.62524414 49.0703125 -55 47 C-52.99609375 45.875 -52.99609375 45.875 -50.4375 45 C-28.04143184 36.76382217 -10.60461003 21.20922006 0 0 Z " fill="#1E5F72" transform="translate(128,161)"/>
<path d="M0 0 C-0.33 1.32 -0.66 2.64 -1 4 C-1.99 4 -2.98 4 -4 4 C-4.433125 4.78375 -4.86625 5.5675 -5.3125 6.375 C-7.51247985 9.79719088 -9.17359533 9.77266265 -13 11 C-16.44527236 13.24464714 -19.73216186 15.69186383 -22.59765625 18.6484375 C-24 20 -24 20 -26.25 20.6875 C-31.40125096 23.1460516 -35.00189477 27.91699778 -37.4375 33 C-37.623125 33.66 -37.80875 34.32 -38 35 C-38.66 35 -39.32 35 -40 35 C-39.79375 35.94875 -39.5875 36.8975 -39.375 37.875 C-38.77554014 41.99628655 -39.55656637 45.50670023 -40.453125 49.53515625 C-42.11718765 57.03532435 -42.11473363 64.35109112 -42 72 C-42.33 72 -42.66 72 -43 72 C-43.33 109.95 -43.66 147.9 -44 187 C-44.33 187 -44.66 187 -45 187 C-45.07023558 168.43200626 -45.12305923 149.86403966 -45.15543652 131.2959404 C-45.17087275 122.67348527 -45.19189989 114.05111292 -45.22631836 105.42871094 C-45.25632043 97.90907586 -45.27559855 90.38950076 -45.28226548 82.86980748 C-45.28615953 78.89212058 -45.29524255 74.91460522 -45.31719017 70.93697357 C-45.33772659 67.1842859 -45.34379962 63.43183857 -45.33932304 59.67910004 C-45.34052711 57.66319189 -45.35657866 55.64730921 -45.3732605 53.63146973 C-45.32677698 39.78857458 -43.00366508 30.24176038 -33.29296875 20.2421875 C-26.05350994 13.46012369 -10.30413993 0 0 0 Z " fill="#77A9A3" transform="translate(59,16)"/>
<path d="M0 0 C0.33 0 0.66 0 1 0 C1.16759211 5.64150753 1.32815426 11.28315452 1.48217773 16.92504883 C1.53557803 18.84470008 1.59090586 20.76429871 1.64819336 22.68383789 C1.73015919 25.44145359 1.80521256 28.19918364 1.87890625 30.95703125 C1.91945885 32.24623222 1.91945885 32.24623222 1.96083069 33.56147766 C1.98092697 34.36208115 2.00102325 35.16268463 2.02172852 35.98754883 C2.04171402 36.6914827 2.06169952 37.39541656 2.08229065 38.12068176 C2 40 2 40 1 43 C1.66 43.33 2.32 43.66 3 44 C2.83757813 45.25167969 2.67515625 46.50335938 2.5078125 47.79296875 C1.8967959 53.30615211 1.85257846 58.77064352 1.875 64.3125 C1.87113281 65.28767578 1.86726563 66.26285156 1.86328125 67.26757812 C1.86457031 68.20666016 1.86585937 69.14574219 1.8671875 70.11328125 C1.86831543 70.95673096 1.86944336 71.80018066 1.87060547 72.66918945 C1.99505322 74.91089255 2.45016016 76.83327556 3 79 C2.83628906 79.63808594 2.67257813 80.27617187 2.50390625 80.93359375 C1.8563725 83.58898409 2.32590031 85.41223468 2.9375 88.0625 C3.57181484 90.85600574 4 93.12149524 4 96 C7.96 96 11.92 96 16 96 C16.33 95.34 16.66 94.68 17 94 C18.0725 94.020625 19.145 94.04125 20.25 94.0625 C23.72819237 94.15063796 23.72819237 94.15063796 25.9375 93.5 C28.27609797 92.93306716 30.34726581 92.90216567 32.75 92.9375 C33.54921875 92.94652344 34.3484375 92.95554687 35.171875 92.96484375 C35.77515625 92.97644531 36.3784375 92.98804688 37 93 C37 92.34 37 91.68 37 91 C37.65226562 90.87882812 38.30453125 90.75765625 38.9765625 90.6328125 C42.92850273 89.87506585 46.64669088 89.12847605 50.4375 87.75 C51.283125 87.5025 52.12875 87.255 53 87 C53.99 87.66 54.98 88.32 56 89 C55.34 89 54.68 89 54 89 C53.505 90.485 53.505 90.485 53 92 C40.5074656 98.0174662 16.61955374 103.36311066 3 100 C-1.5239932 94.40401711 -1.12901406 87.99586763 -1.02172852 81.1706543 C-1.01212097 80.29210281 -1.00251343 79.41355133 -0.99261475 78.50837708 C-0.95971674 75.61357374 -0.91934948 72.71892568 -0.87890625 69.82421875 C-0.85459614 67.8135482 -0.83075303 65.80287195 -0.80735779 63.79219055 C-0.74460552 58.50675963 -0.67551382 53.22142989 -0.60510254 47.93609619 C-0.53433905 42.54012652 -0.46957007 37.14408526 -0.40429688 31.74804688 C-0.27539871 21.1652859 -0.13980335 10.58262213 0 0 Z " fill="#3B6671" transform="translate(15,113)"/>
<path d="M0 0 C0 0.99 0 1.98 0 3 C-0.99 3.33 -1.98 3.66 -3 4 C-4.69287785 3.04504326 -6.35857037 2.0409066 -8 1 C-17.08486138 -1.81222982 -30.1336441 -1.0573641 -39 2 C-40.37310707 3.29233607 -41.71034824 4.62437146 -43 6 C-44.7015625 6.4021875 -44.7015625 6.4021875 -46.4375 6.8125 C-50.63791609 8.2126387 -51.47876009 9.46499947 -53.7421875 13.0625 C-55.4658932 15.71764915 -57.54848293 17.98104049 -59.66796875 20.32421875 C-62.03194278 23.29825059 -63 25.29058864 -63 29.125 C-63 30.07375 -63 31.0225 -63 32 C-63.66 32.66 -64.32 33.32 -65 34 C-65.2827681 37.18701422 -65.2827681 37.18701422 -65.1875 40.8125 C-65.18105469 42.03582031 -65.17460938 43.25914063 -65.16796875 44.51953125 C-65.02476105 47.48692803 -64.62981064 50.11086866 -64 53 C-63.96227087 54.9996441 -63.95350094 57.00054061 -64 59 C-64.66 58.67 -65.32 58.34 -66 58 C-69.70993668 45.99995789 -69.68063857 30.82784573 -63.9375 19.5 C-56.42432211 7.05147946 -46.64435275 -0.72064812 -32.609375 -4.3046875 C-21.50237893 -6.44434692 -10.20964677 -5.10482338 0 0 Z " fill="#5B8689" transform="translate(138,11)"/>
<path d="M0 0 C0.66 0.33 1.32 0.66 2 1 C2.16742247 6.37498274 2.32800169 11.75010924 2.48217773 17.12548828 C2.53562295 18.95497166 2.59095425 20.78440093 2.64819336 22.61376953 C2.73003411 25.23979016 2.80514096 27.86592919 2.87890625 30.4921875 C2.90594131 31.31306854 2.93297638 32.13394958 2.96083069 32.97970581 C3.11387171 38.77225659 3.11387171 38.77225659 2 41 C21.14 41 40.28 41 60 41 C60.33 41.99 60.66 42.98 61 44 C59.63671875 46.6640625 59.63671875 46.6640625 57.6875 49.625 C57.05199219 50.60726562 56.41648438 51.58953125 55.76171875 52.6015625 C54 55 54 55 52 56 C51.01 55.505 51.01 55.505 50 55 C50 54.01 50 53.02 50 52 C50.66 52 51.32 52 52 52 C52 51.01 52 50.02 52 49 C52.66 49 53.32 49 54 49 C54.33 47.35 54.66 45.7 55 44 C54.3426738 44.01110306 53.6853476 44.02220612 53.00810242 44.03364563 C46.17912354 44.14408962 39.35039743 44.21960528 32.52075195 44.2746582 C29.97051696 44.29983408 27.42035434 44.33397705 24.87036133 44.37719727 C21.20896576 44.43771032 17.54852232 44.46617964 13.88671875 44.48828125 C12.7428923 44.51408768 11.59906586 44.5398941 10.420578 44.56648254 C8.82926811 44.56704903 8.82926811 44.56704903 7.20581055 44.56762695 C6.27093307 44.57873001 5.3360556 44.58983307 4.37284851 44.60127258 C2 44 2 44 0.19018555 41.72375488 C-0.9522907 39.10918336 -1.34919797 37.65488887 -1.2487793 34.85229492 C-1.22853195 34.07186325 -1.20828461 33.29143158 -1.18742371 32.48735046 C-1.15006607 31.6600795 -1.11270844 30.83280853 -1.07421875 29.98046875 C-1.04777786 29.12189774 -1.02133698 28.26332672 -0.99409485 27.3787384 C-0.90661212 24.64759573 -0.7973669 21.91782475 -0.6875 19.1875 C-0.62421197 17.33142872 -0.56234691 15.47530833 -0.50195312 13.61914062 C-0.35111654 9.07869292 -0.1807636 4.53935076 0 0 Z " fill="#254C50" transform="translate(58,120)"/>
<path d="M0 0 C0 0.66 0 1.32 0 2 C29.7 2 59.4 2 90 2 C90 2.66 90 3.32 90 4 C85.73637082 5.19712049 81.58989065 5.13242506 77.19238281 5.11352539 C76.30422379 5.11367142 75.41606476 5.11381744 74.50099182 5.1139679 C71.56834462 5.1132718 68.6357611 5.10549357 65.703125 5.09765625 C63.6685998 5.09579099 61.63407415 5.0943676 59.59954834 5.09336853 C54.24675251 5.08955184 48.89398384 5.07972876 43.54119873 5.06866455 C38.07825081 5.05843222 32.61529849 5.053867 27.15234375 5.04882812 C16.4348839 5.03810576 5.71744421 5.02103948 -5 5 C-4.625 3.0625 -4.625 3.0625 -4 1 C-2 0 -2 0 0 0 Z " fill="#58727E" transform="translate(77,207)"/>
<path d="M0 0 C0.99 0.33 1.98 0.66 3 1 C3 1.66 3 2.32 3 3 C2.34 3 1.68 3 1 3 C0.67 3.99 0.34 4.98 0 6 C-31.02 6 -62.04 6 -94 6 C-93.34 5.67 -92.68 5.34 -92 5 C-92 4.34 -92 3.68 -92 3 C-86.375 1 -86.375 1 -83 1 C-82.67 1.99 -82.34 2.98 -82 4 C-72.86364889 4.02321449 -63.72730801 4.04096143 -54.5909338 4.05181217 C-50.34812818 4.0570211 -46.1053428 4.0640825 -41.86254883 4.07543945 C-37.76471827 4.08633919 -33.66690713 4.09229182 -29.56906319 4.09487724 C-28.00904599 4.09671874 -26.4490298 4.10031468 -24.88902092 4.10573006 C-22.69674289 4.11303464 -20.50454418 4.11398699 -18.31225586 4.11352539 C-17.06649277 4.115746 -15.82072968 4.11796661 -14.53721619 4.12025452 C-8.66014499 3.9204521 -4.64561109 3.650123 0 0 Z " fill="#19495D" transform="translate(169,204)"/>
<path d="M0 0 C4.0615717 2.86699179 6.72655633 6.09334013 9.5703125 10.09765625 C10.93870887 12.03552243 10.93870887 12.03552243 12.6796875 13.55859375 C14 15 14 15 14 18 C17.2223307 15.85177953 18.08437567 14.2725249 20 11 C21 10 22 9 23 8 C23.33 7.01 23.66 6.02 24 5 C24.66 4.67 25.32 4.34 26 4 C26.33 3.01 26.66 2.02 27 1 C27.66 1 28.32 1 29 1 C28.835 1.598125 28.67 2.19625 28.5 2.8125 C27.8885876 5.11344336 27.8885876 5.11344336 28 8 C26.50193643 10.57368558 24.59182013 12.85124724 22.75 15.1875 C22.25886719 15.84169922 21.76773438 16.49589844 21.26171875 17.16992188 C20.77832031 17.78802734 20.29492188 18.40613281 19.796875 19.04296875 C19.13703613 19.89411255 19.13703613 19.89411255 18.46386719 20.76245117 C17 22 17 22 13 22 C11.3684082 20.39526367 11.3684082 20.39526367 9.80078125 18.16796875 C8.94709961 16.97010742 8.94709961 16.97010742 8.07617188 15.74804688 C7.49416016 14.90306641 6.91214844 14.05808594 6.3125 13.1875 C5.71888672 12.35412109 5.12527344 11.52074219 4.51367188 10.66210938 C0.16100176 4.48300528 0.16100176 4.48300528 -1 1 C-0.67 0.67 -0.34 0.34 0 0 Z " fill="#384152" transform="translate(100,110)"/>
<path d="M0 0 C3 1 3 1 4 3 C4.09949438 5.92213114 4.13978123 8.81986394 4.1328125 11.7421875 C4.13376923 12.62093536 4.13472595 13.49968323 4.13571167 14.40505981 C4.13639349 16.27297029 4.1345391 18.14088312 4.13037109 20.00878906 C4.12508651 22.8288325 4.13028257 25.64871196 4.13671875 28.46875 C4.13979023 37.69732622 4.04541339 46.81988924 3 56 C2.34 55.67 1.68 55.34 1 55 C-0.94305003 44.3990323 -0.1161601 32.98607006 -0.0625 22.25 C-0.05747114 20.48698045 -0.05291071 18.7239595 -0.04882812 16.9609375 C-0.03783929 12.64059142 -0.02019128 8.32031221 0 4 C0 3.67 0 3.34 0 3 C-0.99 3.33 -1.98 3.66 -3 4 C-2.67 3.01 -2.34 2.02 -2 1 C-1.34 0.67 -0.68 0.34 0 0 Z " fill="#4CA492" transform="translate(57,14)"/>
<path d="M0 0 C0.99 0 1.98 0 3 0 C2.80261934 3.77065115 2.06130839 4.93914043 -0.66796875 7.6484375 C-1.82773721 8.57434111 -3.00190568 9.48240465 -4.1875 10.375 C-4.80447754 10.85106689 -5.42145508 11.32713379 -6.05712891 11.81762695 C-12.27735029 16.46903144 -18.91704609 19.84604028 -26 23 C-26.33 21.68 -26.66 20.36 -27 19 C-21.375 15.125 -21.375 15.125 -18 14 C-17.34 13.34 -16.68 12.68 -16 12 C-15.34 12.33 -14.68 12.66 -14 13 C-13.67 12.01 -13.34 11.02 -13 10 C-11.6846659 9.29848848 -10.34882408 8.63474075 -9 8 C-8.525625 7.505 -8.05125 7.01 -7.5625 6.5 C-6 5 -6 5 -3.375 4 C-2.59125 3.67 -1.8075 3.34 -1 3 C-0.67 2.01 -0.34 1.02 0 0 Z " fill="#456670" transform="translate(103,178)"/>
<path d="M0 0 C0.99 0.33 1.98 0.66 3 1 C2.02860049 4.70897994 0.89412374 7.34010517 -1.625 10.1875 C-4.32259041 12.76849186 -4.32259041 12.76849186 -4 16 C-5.32 16 -6.64 16 -8 16 C-9.66526825 17.43860237 -9.66526825 17.43860237 -11.125 19.4375 C-15.28176764 24.4998815 -20.06594107 28.71124052 -25 33 C-25 30 -25 30 -22.5859375 27.546875 C-21.52128375 26.60812637 -20.4506008 25.67618547 -19.375 24.75 C-18.26323814 23.75787656 -17.1538375 22.76310051 -16.046875 21.765625 C-15.51513672 21.28673828 -14.98339844 20.80785156 -14.43554688 20.31445312 C-8.97284069 15.31254664 -5.60387458 9.81691323 -2.19921875 3.2578125 C-1 1 -1 1 0 0 Z " fill="#4E7079" transform="translate(128,162)"/>
<path d="M0 0 C10.13645671 -0.60616685 19.77429032 0.38714516 29 5 C29 5.99 29 6.98 29 8 C28.01 8.33 27.02 8.66 26 9 C24.30712215 8.04504326 22.64142963 7.0409066 21 6 C18.23971672 5.1364378 15.77418484 4.8804986 12.890625 4.90234375 C11.75947266 4.90717773 11.75947266 4.90717773 10.60546875 4.91210938 C9.82816406 4.92048828 9.05085938 4.92886719 8.25 4.9375 C7.45722656 4.94201172 6.66445312 4.94652344 5.84765625 4.95117188 C3.89840492 4.96291435 1.94919262 4.98084854 0 5 C0 3.35 0 1.7 0 0 Z " fill="#5C8C8E" transform="translate(109,6)"/>
<path d="M0 0 C0.556875 0.37125 1.11375 0.7425 1.6875 1.125 C1.0275 1.125 0.3675 1.125 -0.3125 1.125 C-0.6425 2.115 -0.9725 3.105 -1.3125 4.125 C-4.04296875 5.2578125 -4.04296875 5.2578125 -7.5 6.25 C-9.19189453 6.74886719 -9.19189453 6.74886719 -10.91796875 7.2578125 C-19.40761401 9.42662866 -19.40761401 9.42662866 -23.3125 8.125 C-23.3125 7.465 -23.3125 6.805 -23.3125 6.125 C-21.3325 5.795 -19.3525 5.465 -17.3125 5.125 C-17.3125 4.465 -17.3125 3.805 -17.3125 3.125 C-16.64863281 3.00382813 -15.98476563 2.88265625 -15.30078125 2.7578125 C-9.7488788 1.72906019 -9.7488788 1.72906019 -4.4375 -0.125 C-2.3125 -0.875 -2.3125 -0.875 0 0 Z " fill="#335A68" transform="translate(69.3125,200.875)"/>
<path d="M0 0 C12.54 0 25.08 0 38 0 C38 0.66 38 1.32 38 2 C39.32 2.66 40.64 3.32 42 4 C40.28490234 3.75443359 40.28490234 3.75443359 38.53515625 3.50390625 C31.19626156 2.68847351 23.81030137 2.89436516 16.4375 2.9375 C14.93685045 2.9425254 13.43619928 2.94708647 11.93554688 2.95117188 C8.29033023 2.96209424 4.64517578 2.97930144 1 3 C0.67 2.01 0.34 1.02 0 0 Z " fill="#23484F" transform="translate(128,161)"/>
<path d="M0 0 C1.26457031 0.13921875 2.52914062 0.2784375 3.83203125 0.421875 C5.10433594 0.55078125 6.37664062 0.6796875 7.6875 0.8125 C8.66332031 0.93109375 9.63914062 1.0496875 10.64453125 1.171875 C10.97453125 2.161875 11.30453125 3.151875 11.64453125 4.171875 C10.93167969 4.19765625 10.21882813 4.2234375 9.484375 4.25 C2.05323011 4.6900678 -2.66094568 5.83488642 -8.29296875 10.921875 C-8.81890625 11.540625 -8.81890625 11.540625 -9.35546875 12.171875 C-9.68546875 10.521875 -10.01546875 8.871875 -10.35546875 7.171875 C-8.70546875 7.171875 -7.05546875 7.171875 -5.35546875 7.171875 C-5.68546875 6.181875 -6.01546875 5.191875 -6.35546875 4.171875 C-4.76592598 0.62838836 -3.92076183 0.20083064 0 0 Z " fill="#4A7A7C" transform="translate(109.35546875,28.828125)"/>
<path d="M0 0 C0.33 0 0.66 0 1 0 C1.33917131 4.14537705 1.67026953 8.29136218 2 12.4375 C2.09539063 13.60216797 2.19078125 14.76683594 2.2890625 15.96679688 C2.79171978 22.33977305 3.05153695 28.60941806 3 35 C3.28181161 37.0079077 3.59256816 39.0137698 4 41 C3.01 41.66 2.02 42.32 1 43 C0.12733788 37.76100772 -0.13410177 32.74677147 -0.09765625 27.44140625 C-0.0962413 26.65225327 -0.09482635 25.86310028 -0.09336853 25.05003357 C-0.08781555 22.55414885 -0.07527208 20.05835715 -0.0625 17.5625 C-0.05747891 15.86002735 -0.05291707 14.15755327 -0.04882812 12.45507812 C-0.03786158 8.30335012 -0.02062991 4.15169078 0 0 Z " fill="#468D85" transform="translate(15,77)"/>
<path d="M0 0 C0.66 0.33 1.32 0.66 2 1 C1.67 2.32 1.34 3.64 1 5 C0.34 5 -0.32 5 -1 5 C-0.690625 6.423125 -0.690625 6.423125 -0.375 7.875 C0.22445986 11.99628655 -0.55656637 15.50670023 -1.453125 19.53515625 C-3.11718765 27.03532435 -3.11473363 34.35109112 -3 42 C-3.33 42 -3.66 42 -4 42 C-5.12998844 32.65741704 -5.09908936 23.39146903 -5 14 C-4.34 14 -3.68 14 -3 14 C-2.67 10.37 -2.34 6.74 -2 3 C-1.34 3 -0.68 3 0 3 C0 2.01 0 1.02 0 0 Z " fill="#4CA190" transform="translate(20,46)"/>
<path d="M0 0 C5.91023691 1.2061708 10.01115783 3.378367 14 8 C14.9375 10.875 14.9375 10.875 15 13 C14.01 13.495 14.01 13.495 13 14 C12.67 12.68 12.34 11.36 12 10 C11.34 10 10.68 10 10 10 C9.67 9.34 9.34 8.68 9 8 C6.97536745 7.34786708 6.97536745 7.34786708 5 7 C4.67 7.66 4.34 8.32 4 9 C2.875 5.25 2.875 5.25 4 3 C2.68 2.67 1.36 2.34 0 2 C0 1.34 0 0.68 0 0 Z " fill="#47626A" transform="translate(166,161)"/>
<path d="M0 0 C4.69564393 3.31457218 7.72469104 7.36279281 11 12 C10.67 12.66 10.34 13.32 10 14 C11.39092892 16.62387135 11.39092892 16.62387135 13 19 C8.67697309 17.48644596 6.73701044 14.21723979 4.3125 10.5625 C3.90966797 9.97662109 3.50683594 9.39074219 3.09179688 8.78710938 C1.34652417 6.21158968 -0.0114357 3.96569289 -1 1 C-0.67 0.67 -0.34 0.34 0 0 Z " fill="#59616B" transform="translate(100,110)"/>
<path d="M0 0 C-1.3489311 4.51451314 -3.16618294 8.32277281 -5.5625 12.375 C-6.18253906 13.43460938 -6.80257812 14.49421875 -7.44140625 15.5859375 C-7.95574219 16.38257812 -8.47007812 17.17921875 -9 18 C-9.33 18 -9.66 18 -10 18 C-10 15.36 -10 12.72 -10 10 C-9.01 9.67 -8.02 9.34 -7 9 C-6.27113604 7.15537813 -6.27113604 7.15537813 -5.9375 5 C-5.52734375 2.8125 -5.52734375 2.8125 -5 1 C-3 0 -3 0 0 0 Z " fill="#405A61" transform="translate(158,71)"/>
<path d="M0 0 C3 1 3 1 4 3 C4.09947896 5.88488986 4.13884572 8.74047592 4.125 11.625 C4.12886719 12.40746094 4.13273437 13.18992187 4.13671875 13.99609375 C4.12828261 19.08308577 3.7258882 23.96487075 3 29 C2.67 29 2.34 29 2 29 C2 20.09 2 11.18 2 2 C0.35 2.66 -1.3 3.32 -3 4 C-2.67 3.01 -2.34 2.02 -2 1 C-1.34 0.67 -0.68 0.34 0 0 Z " fill="#51756B" transform="translate(57,14)"/>
<path d="M0 0 C0.33 0 0.66 0 1 0 C1.16965655 2.3539847 1.3357935 4.70813384 1.5 7.0625 C1.5928125 8.37347656 1.685625 9.68445313 1.78125 11.03515625 C1.92288686 13.60232426 1.9901972 16.17511094 1.96875 18.74609375 C1.86266137 21.83488013 1.86266137 21.83488013 2.55859375 24.078125 C3.18695346 26.81399205 2.61578845 29.01610412 2.0625 31.75 C1.86785156 32.73484375 1.67320313 33.7196875 1.47265625 34.734375 C1.23869141 35.85585937 1.23869141 35.85585937 1 37 C0.67 37 0.34 37 0 37 C0 24.79 0 12.58 0 0 Z " fill="#2A5765" transform="translate(15,166)"/>
<path d="M0 0 C0.33 0 0.66 0 1 0 C2.24113378 8.53279474 2.24113378 16.46720526 1 25 C0.67 25 0.34 25 0 25 C-1.07403832 20.64417794 -1.14952163 16.39634885 -1.125 11.9375 C-1.12886719 11.23044922 -1.13273438 10.52339844 -1.13671875 9.79492188 C-1.13032651 6.39105469 -1.06453812 3.25275537 0 0 Z " fill="#294045" transform="translate(160,40)"/>
<path d="M0 0 C1.25393555 0.08507812 1.25393555 0.08507812 2.53320312 0.171875 C4.58536928 0.31259496 6.63656118 0.4673993 8.6875 0.625 C8.6875 0.955 8.6875 1.285 8.6875 1.625 C7.83027344 1.67398437 6.97304687 1.72296875 6.08984375 1.7734375 C-1.15780963 2.1319785 -1.15780963 2.1319785 -8.1875 3.75 C-11.89877964 4.7891583 -14.57005112 4.38876508 -18.3125 3.625 C-16.98911368 2.93879969 -15.65300052 2.27713539 -14.3125 1.625 C-13.631875 1.2640625 -12.95125 0.903125 -12.25 0.53125 C-8.0792526 -0.75546994 -4.31169101 -0.3403071 0 0 Z " fill="#4E7C7E" transform="translate(113.3125,7.375)"/>
<path d="M0 0 C1.875 0.1875 1.875 0.1875 4 1 C5.25 3.5625 5.25 3.5625 6 6 C6.99 6 7.98 6 9 6 C8.7525 6.515625 8.505 7.03125 8.25 7.5625 C7.84972036 11.46522651 9.93220772 13.74166065 12 17 C11.34 17 10.68 17 10 17 C8.5911026 15.15962777 7.27159702 13.25028296 6 11.3125 C5.29875 10.25675781 4.5975 9.20101562 3.875 8.11328125 C2.26230402 5.43553397 1.04547653 2.93495756 0 0 Z " fill="#536C78" transform="translate(82,86)"/>
<path d="M0 0 C1.32 0.33 2.64 0.66 4 1 C1.69 4.3 -0.62 7.6 -3 11 C-3.99 10.67 -4.98 10.34 -6 10 C-6 9.01 -6 8.02 -6 7 C-5.34 7 -4.68 7 -4 7 C-4 6.01 -4 5.02 -4 4 C-3.34 4 -2.68 4 -2 4 C-1.34 2.68 -0.68 1.36 0 0 Z " fill="#3E5E64" transform="translate(114,165)"/>
<path d="M0 0 C0.33 0.66 0.66 1.32 1 2 C0.0625 4.625 0.0625 4.625 -1 7 C-1.66 7 -2.32 7 -3 7 C-3 7.99 -3 8.98 -3 10 C-3.66 10 -4.32 10 -5 10 C-5.33 13.63 -5.66 17.26 -6 21 C-6.66 21 -7.32 21 -8 21 C-8.63832639 12.48898151 -5.03537652 6.53238035 0 0 Z " fill="#679A8F" transform="translate(23,39)"/>
<path d="M0 0 C1.0828125 0.37125 1.0828125 0.37125 2.1875 0.75 C2.1875 1.74 2.1875 2.73 2.1875 3.75 C-0.7825 5.07 -3.7525 6.39 -6.8125 7.75 C-7.1425 6.43 -7.4725 5.11 -7.8125 3.75 C-3.50480769 -0.31153846 -3.50480769 -0.31153846 0 0 Z " fill="#325965" transform="translate(83.8125,193.25)"/>
<path d="M0 0 C-2.31 3.63 -4.62 7.26 -7 11 C-7.66 10.67 -8.32 10.34 -9 10 C-8.20672338 3.01916575 -7.50301346 0 0 0 Z " fill="#425A63" transform="translate(147,91)"/>
<path d="M0 0 C0.99 0.33 1.98 0.66 3 1 C2.67 1.66 2.34 2.32 2 3 C1.34 3 0.68 3 0 3 C0 4.32 0 5.64 0 7 C-2.18127243 9.46828196 -4.03746288 11.51873144 -7 13 C-4.29384966 3.40546697 -4.29384966 3.40546697 0 0 Z " fill="#5EA897" transform="translate(29,33)"/>
<path d="M0 0 C0.99 0 1.98 0 3 0 C2.45418801 3.79549259 0.94590705 5.30979295 -1.9375 7.75 C-2.64777344 8.36359375 -3.35804688 8.9771875 -4.08984375 9.609375 C-6 11 -6 11 -8 11 C-8 10.34 -8 9.68 -8 9 C-7.34 9 -6.68 9 -6 9 C-6 8.01 -6 7.02 -6 6 C-3.5625 3.375 -3.5625 3.375 -1 1 C-0.67 0.67 -0.34 0.34 0 0 Z " fill="#47616F" transform="translate(178,198)"/>
<path d="M0 0 C1.51953125 1.01953125 1.51953125 1.01953125 3 3 C3.05546517 5.67108574 2.96547069 8.05292823 2.6875 10.6875 C2.62626953 11.38939453 2.56503906 12.09128906 2.50195312 12.81445312 C2.34897376 14.5442967 2.17637398 16.27238497 2 18 C1.34 17.67 0.68 17.34 0 17 C-0.44921875 14.19921875 -0.44921875 14.19921875 -0.6875 10.6875 C-0.77386719 9.53636719 -0.86023437 8.38523437 -0.94921875 7.19921875 C-0.99210699 4.49725969 -0.83397927 2.53956093 0 0 Z " fill="#4C9282" transform="translate(58,52)"/>
<path d="M0 0 C0.33 1.32 0.66 2.64 1 4 C-1.88211302 4.96070434 -3.69850044 5.10581883 -6.6875 5.0625 C-7.89986328 5.04896484 -7.89986328 5.04896484 -9.13671875 5.03515625 C-10.05904297 5.01775391 -10.05904297 5.01775391 -11 5 C-10.34 4.67 -9.68 4.34 -9 4 C-9 3.34 -9 2.68 -9 2 C-5.86501708 0.14223235 -3.62528568 -0.20140476 0 0 Z " fill="#2A4A58" transform="translate(86,205)"/>
<path d="M0 0 C1.45903258 0.30921884 2.91720722 0.62248799 4.375 0.9375 C5.18710938 1.11152344 5.99921875 1.28554687 6.8359375 1.46484375 C9 2 9 2 11 3 C11 3.99 11 4.98 11 6 C8 7 8 7 5.3125 5.6875 C4.549375 5.130625 3.78625 4.57375 3 4 C3 3.34 3 2.68 3 2 C2.01 2 1.02 2 0 2 C0 1.34 0 0.68 0 0 Z " fill="#548383" transform="translate(127,8)"/>
<path d="M0 0 C2.64 0 5.28 0 8 0 C3.69230769 5.78461538 3.69230769 5.78461538 0.1875 6.875 C-0.8953125 6.936875 -0.8953125 6.936875 -2 7 C-1.34 4.69 -0.68 2.38 0 0 Z " fill="#4D8B8E" transform="translate(93,11)"/>
<path d="M0 0 C2.64 0.33 5.28 0.66 8 1 C7.01 1.495 7.01 1.495 6 2 C6 2.99 6 3.98 6 5 C7.32 5.33 8.64 5.66 10 6 C6.625 6.1875 6.625 6.1875 3 6 C2.34 5.01 1.68 4.02 1 3 C0.34 3 -0.32 3 -1 3 C-0.67 2.01 -0.34 1.02 0 0 Z " fill="#2B5C6E" transform="translate(84,203)"/>
<path d="M0 0 C0.66 0 1.32 0 2 0 C1.835 0.598125 1.67 1.19625 1.5 1.8125 C0.8885876 4.11344336 0.8885876 4.11344336 1 7 C0.01 8.485 0.01 8.485 -1 10 C-1.99 10 -2.98 10 -4 10 C-3.625 7.0625 -3.625 7.0625 -3 4 C-2.34 3.67 -1.68 3.34 -1 3 C-0.67 2.01 -0.34 1.02 0 0 Z " fill="#2F3C4E" transform="translate(127,111)"/>
<path d="M0 0 C0.66 0 1.32 0 2 0 C2 0.99 2 1.98 2 3 C2.78375 3.061875 3.5675 3.12375 4.375 3.1875 C7 4 7 4 8.25 6.3125 C9.54545455 10.95454545 9.54545455 10.95454545 10 13 C7.78077954 10.78077954 5.56803044 8.55774545 3.375 6.3125 C1.22713676 3.98708851 1.22713676 3.98708851 -1 3 C-0.67 2.01 -0.34 1.02 0 0 Z " fill="#5F8384" transform="translate(124,32)"/>
<path d="M0 0 C5.28 0 10.56 0 16 0 C15.67 0.99 15.34 1.98 15 3 C13.35 3.33 11.7 3.66 10 4 C10 3.34 10 2.68 10 2 C6.7 1.67 3.4 1.34 0 1 C0 0.67 0 0.34 0 0 Z " fill="#3F666D" transform="translate(103,162)"/>
<path d="M0 0 C4.41309542 3.15221101 7.00793014 6.55463907 10 11 C9.01 11.33 8.02 11.66 7 12 C6.67386719 11.52949219 6.34773438 11.05898437 6.01171875 10.57421875 C5.57472656 9.95160156 5.13773437 9.32898438 4.6875 8.6875 C4.25824219 8.07261719 3.82898438 7.45773438 3.38671875 6.82421875 C2.04070466 5.05354669 0.60807197 3.53261991 -1 2 C-0.67 1.34 -0.34 0.68 0 0 Z " fill="#2C3C51" transform="translate(100,110)"/>
<path d="M0 0 C1 2 1 2 0.375 4.0625 C-1 6 -1 6 -3.3125 6.625 C-4.199375 6.74875 -5.08625 6.8725 -6 7 C-7.6792238 7.63437344 -9.35008418 8.29289322 -11 9 C-11 8.34 -11 7.68 -11 7 C-9.21601386 5.71993203 -7.37146094 4.52339649 -5.5 3.375 C-3.96859375 2.42753906 -3.96859375 2.42753906 -2.40625 1.4609375 C-1.6121875 0.97882813 -0.818125 0.49671875 0 0 Z " fill="#4C6A73" transform="translate(100,194)"/>
<path d="M0 0 C0.66 0 1.32 0 2 0 C2.33 1.32 2.66 2.64 3 4 C2.38125 4.268125 1.7625 4.53625 1.125 4.8125 C-1.2995233 5.95556848 -1.2995233 5.95556848 -3 9 C-3.66 9 -4.32 9 -5 9 C-4.67 7.68 -4.34 6.36 -4 5 C-3.34 5 -2.68 5 -2 5 C-1.34 3.35 -0.68 1.7 0 0 Z " fill="#304356" transform="translate(135,101)"/>
<path d="M0 0 C3.17462943 2.40242227 5.85751741 4.61713276 8 8 C8 8.66 8 9.32 8 10 C6.68 9.67 5.36 9.34 4 9 C4 8.34 4 7.68 4 7 C1.97607712 4.57129254 -0.13302508 3.28519565 -3 2 C-2.01 2 -1.02 2 0 2 C0 1.34 0 0.68 0 0 Z " fill="#456465" transform="translate(146,17)"/>
<path d="M0 0 C2.31 0.66 4.62 1.32 7 2 C7 3.65 7 5.3 7 7 C6.34 7 5.68 7 5 7 C4.67 7.66 4.34 8.32 4 9 C2.875 5.25 2.875 5.25 4 3 C2.68 2.67 1.36 2.34 0 2 C0 1.34 0 0.68 0 0 Z " fill="#4B7279" transform="translate(166,161)"/>
<path d="M0 0 C0.66 0 1.32 0 2 0 C1.69381595 3.67420866 1.24228216 4.78135513 -1.5625 7.3125 C-2.366875 7.869375 -3.17125 8.42625 -4 9 C-4.33 7.35 -4.66 5.7 -5 4 C-3.35 4 -1.7 4 0 4 C-0.33 3.01 -0.66 2.02 -1 1 C-0.67 0.67 -0.34 0.34 0 0 Z " fill="#588083" transform="translate(104,32)"/>
<path d="M0 0 C-0.66 0 -1.32 0 -2 0 C-2.33 0.99 -2.66 1.98 -3 3 C-5.97 2.505 -5.97 2.505 -9 2 C-8.67 1.01 -8.34 0.02 -8 -1 C-4.71293093 -2.47351372 -2.99288606 -1.8171094 0 0 Z " fill="#204B5A" transform="translate(71,202)"/>
<path d="M0 0 C2.0625 0.4375 2.0625 0.4375 4 1 C3.67 2.32 3.34 3.64 3 5 C1.35 5.33 -0.3 5.66 -2 6 C-1.125 1.125 -1.125 1.125 0 0 Z " fill="#456672" transform="translate(71,198)"/>
<path d="M0 0 C2.475 0.495 2.475 0.495 5 1 C5.6875 2.8125 5.6875 2.8125 6 5 C4.5625 6.75 4.5625 6.75 3 8 C1.92474806 5.34771188 0.90543849 2.71631546 0 0 Z " fill="#527B7E" transform="translate(151,27)"/>
<path d="M0 0 C0.66 0 1.32 0 2 0 C1.88655624 2.1464753 1.75893655 4.29220592 1.625 6.4375 C1.52058594 8.22994141 1.52058594 8.22994141 1.4140625 10.05859375 C1.27742187 11.02925781 1.14078125 11.99992188 1 13 C0.01 13.495 0.01 13.495 -1 14 C-1.02685938 11.85423363 -1.04633088 9.70837355 -1.0625 7.5625 C-1.07410156 6.36753906 -1.08570313 5.17257813 -1.09765625 3.94140625 C-1 1 -1 1 0 0 Z " fill="#2E5E69" transform="translate(181,175)"/>
<path d="M0 0 C0.33 0.99 0.66 1.98 1 3 C-0.21484375 4.82421875 -0.21484375 4.82421875 -1.9375 6.6875 C-2.50339844 7.31011719 -3.06929687 7.93273437 -3.65234375 8.57421875 C-4.09707031 9.04472656 -4.54179687 9.51523438 -5 10 C-5.66 9.67 -6.32 9.34 -7 9 C-6.1875 6.5625 -6.1875 6.5625 -5 4 C-4.01 3.67 -3.02 3.34 -2 3 C-1.34 2.01 -0.68 1.02 0 0 Z " fill="#5D6672" transform="translate(134,106)"/>
<path d="M0 0 C0 0.66 0 1.32 0 2 C-5.625 3.125 -5.625 3.125 -9 2 C-9 1.34 -9 0.68 -9 0 C-5.52176885 -1.15941038 -3.54104422 -0.70820884 0 0 Z " fill="#3E616C" transform="translate(55,207)"/>
<path d="M0 0 C0.66 0 1.32 0 2 0 C2 0.66 2 1.32 2 2 C2.66 2 3.32 2 4 2 C2.25 5.875 2.25 5.875 0 7 C0 6.34 0 5.68 0 5 C-0.66 4.67 -1.32 4.34 -2 4 C-1.34 2.68 -0.68 1.36 0 0 Z " fill="#52767F" transform="translate(106,173)"/>
<path d="M0 0 C0.99 0 1.98 0 3 0 C3.45375 0.969375 3.9075 1.93875 4.375 2.9375 C5.65786221 6.07079582 5.65786221 6.07079582 8 7 C7.67 7.99 7.34 8.98 7 10 C3.9072219 7.93814793 3.31923802 7.09630198 1.8125 3.875 C1.29623047 2.78832031 1.29623047 2.78832031 0.76953125 1.6796875 C0.51558594 1.12539062 0.26164062 0.57109375 0 0 Z " fill="#334E61" transform="translate(89,95)"/>
<path d="M0 0 C1.875 0.3125 1.875 0.3125 4 1 C6 4 6 4 5.625 6.1875 C5.41875 6.785625 5.2125 7.38375 5 8 C2.74754119 5.31158141 1.11786042 3.35358125 0 0 Z " fill="#566572" transform="translate(94,104)"/>
<path d="M0 0 C2.18840439 3.28260659 4.15885893 6.50818073 6 10 C5.67 10.66 5.34 11.32 5 12 C2.52140092 9.7991151 1.38789634 7.93627031 0.3125 4.8125 C0.06113281 4.09707031 -0.19023438 3.38164063 -0.44921875 2.64453125 C-0.63097656 2.10183594 -0.81273438 1.55914062 -1 1 C-0.67 0.67 -0.34 0.34 0 0 Z " fill="#3D636E" transform="translate(77,72)"/>
<path d="M0 0 C0.66 0.66 1.32 1.32 2 2 C0.52307692 6.67692308 0.52307692 6.67692308 -2.125 8.3125 C-3.053125 8.6528125 -3.053125 8.6528125 -4 9 C-2.80100302 5.9168649 -1.52299523 2.93720508 0 0 Z " fill="#496C75" transform="translate(95,184)"/>
<path d="M0 0 C0 0.66 0 1.32 0 2 C1.65 2.33 3.3 2.66 5 3 C5 3.33 5 3.66 5 4 C1.7 4 -1.6 4 -5 4 C-4.67 3.01 -4.34 2.02 -4 1 C-2 0 -2 0 0 0 Z " fill="#697882" transform="translate(77,207)"/>
<path d="M0 0 C0.66 0.33 1.32 0.66 2 1 C-1.0684847 3.97550031 -2.46236331 4.96474513 -6.8125 5.25 C-7.864375 5.1675 -8.91625 5.085 -10 5 C-7.32196842 3.21464561 -4.97778133 2.14530051 -2 1 C-1.34 0.67 -0.68 0.34 0 0 Z " fill="#1E4B59" transform="translate(96,199)"/>
<path d="M0 0 C2.31 0 4.62 0 7 0 C5.25 2.0625 5.25 2.0625 3 4 C0.75 3.75 0.75 3.75 -1 3 C-0.67 2.01 -0.34 1.02 0 0 Z " fill="#5AAE9A" transform="translate(35,29)"/>
<path d="M0 0 C0.99 0.33 1.98 0.66 3 1 C2.2884375 1.6496875 2.2884375 1.6496875 1.5625 2.3125 C-0.23686957 4.02309613 -0.23686957 4.02309613 -1 7 C-1.66 7 -2.32 7 -3 7 C-2.625 4.0625 -2.625 4.0625 -2 1 C-1.34 0.67 -0.68 0.34 0 0 Z " fill="#28525D" transform="translate(99,182)"/>
<path d="M0 0 C2.0625 0.4375 2.0625 0.4375 4 1 C2.71034824 2.37562854 1.37310707 3.70766393 0 5 C-0.66 5 -1.32 5 -2 5 C-1.125 1.125 -1.125 1.125 0 0 Z " fill="#2C494E" transform="translate(114,165)"/>
<path d="M0 0 C0.33 0.66 0.66 1.32 1 2 C0.06553465 4.03144641 -0.93224776 6.03533587 -2 8 C-2.66 8 -3.32 8 -4 8 C-4.25 5.6875 -4.25 5.6875 -4 3 C-2 1.1875 -2 1.1875 0 0 Z " fill="#4A7678" transform="translate(80,24)"/>
<path d="M0 0 C0.33 0.99 0.66 1.98 1 3 C-0.4375 5.1875 -0.4375 5.1875 -2 7 C-2.66 6.67 -3.32 6.34 -4 6 C-2.25 1.125 -2.25 1.125 0 0 Z " fill="#275360" transform="translate(92,187)"/>
<path d="M0 0 C0.33 1.32 0.66 2.64 1 4 C-0.98 4.99 -0.98 4.99 -3 6 C-3.33 5.01 -3.66 4.02 -4 3 C-3.34 3 -2.68 3 -2 3 C-1.67 2.34 -1.34 1.68 -1 1 C-0.67 0.67 -0.34 0.34 0 0 Z " fill="#51767E" transform="translate(158,66)"/>
<path d="M0 0 C0.66 0 1.32 0 2 0 C2.93423645 3.01031744 3.04449911 3.86650268 2 7 C1.34 7 0.68 7 0 7 C-1.125 2.25 -1.125 2.25 0 0 Z " fill="#396267" transform="translate(156,32)"/>
<path d="M0 0 C2.475 0.99 2.475 0.99 5 2 C4.01 2.99 3.02 3.98 2 5 C1.01 4.67 0.02 4.34 -1 4 C-0.67 2.68 -0.34 1.36 0 0 Z " fill="#466D71" transform="translate(138,12)"/>
</svg>
